<mxfile host="Electron" agent="Mozilla/5.0 (X11; Linux x86_64) AppleWebKit/537.36 (KHTML, like Gecko) draw.io/28.0.6 Chrome/138.0.7204.100 Electron/37.2.3 Safari/537.36" version="28.0.6">
  <diagram name="fig-1" id="ZuMf6JAPAMjyukRJtieO">
    <mxGraphModel dx="1426" dy="777" grid="1" gridSize="10" guides="1" tooltips="1" connect="1" arrows="1" fold="1" page="1" pageScale="1" pageWidth="850" pageHeight="1100" math="0" shadow="0">
      <root>
        <mxCell id="0" />
        <mxCell id="1" parent="0" />
        <mxCell id="RjiGP63PbW-LU3JviIWF-1" value="" style="sketch=0;outlineConnect=0;fontColor=#232F3E;gradientColor=none;fillColor=#232F3D;strokeColor=none;dashed=0;verticalLabelPosition=bottom;verticalAlign=top;align=center;html=1;fontSize=12;fontStyle=0;aspect=fixed;pointerEvents=1;shape=mxgraph.aws4.data_stream;" vertex="1" parent="1">
          <mxGeometry x="160" y="202.5" width="78" height="78" as="geometry" />
        </mxCell>
        <mxCell id="RjiGP63PbW-LU3JviIWF-6" style="edgeStyle=orthogonalEdgeStyle;rounded=0;orthogonalLoop=1;jettySize=auto;html=1;exitX=1;exitY=0.5;exitDx=0;exitDy=0;" edge="1" parent="1" source="RjiGP63PbW-LU3JviIWF-9" target="RjiGP63PbW-LU3JviIWF-5">
          <mxGeometry relative="1" as="geometry">
            <mxPoint x="425" y="241.5" as="sourcePoint" />
          </mxGeometry>
        </mxCell>
        <mxCell id="RjiGP63PbW-LU3JviIWF-4" style="edgeStyle=orthogonalEdgeStyle;rounded=0;orthogonalLoop=1;jettySize=auto;html=1;entryX=0;entryY=0.5;entryDx=0;entryDy=0;" edge="1" parent="1" source="RjiGP63PbW-LU3JviIWF-1" target="RjiGP63PbW-LU3JviIWF-9">
          <mxGeometry relative="1" as="geometry">
            <mxPoint x="305" y="241.5" as="targetPoint" />
          </mxGeometry>
        </mxCell>
        <mxCell id="RjiGP63PbW-LU3JviIWF-5" value="" style="sketch=0;outlineConnect=0;fontColor=#232F3E;gradientColor=none;fillColor=#232F3D;strokeColor=none;dashed=0;verticalLabelPosition=bottom;verticalAlign=top;align=center;html=1;fontSize=12;fontStyle=0;aspect=fixed;pointerEvents=1;shape=mxgraph.aws4.data_stream;" vertex="1" parent="1">
          <mxGeometry x="500" y="202.5" width="78" height="78" as="geometry" />
        </mxCell>
        <mxCell id="RjiGP63PbW-LU3JviIWF-9" value="" style="icon;html=1;image=img/clipart/Gear_128x128.png;strokeWidth=4;" vertex="1" parent="1">
          <mxGeometry x="320" y="202.5" width="100" height="77.5" as="geometry" />
        </mxCell>
      </root>
    </mxGraphModel>
  </diagram>
</mxfile>
